<svg xmlns="http://www.w3.org/2000/svg" viewBox="0 0 500 500"><g id="freepik--background-complete--inject-110"><path d="M129.25,373.61a27.71,27.71,0,0,0-11.85-4.07c-1.93-.2-4-.14-5.6,1a1.12,1.12,0,0,0-.57,1,1.21,1.21,0,0,0,.54.7,17,17,0,0,0,17.48,1.32" style="fill:#e0e0e0"></path><path d="M128.94,373.28a57.68,57.68,0,0,1-7.65-6.73,19.37,19.37,0,0,1-4.79-8.87,3.57,3.57,0,0,1,.38-3c6.09,4.77,10.88,10.92,12.06,18.57" style="fill:#e0e0e0"></path><path d="M129.18,373.57a27.76,27.76,0,0,1,.14-10,13.6,13.6,0,0,1,5.35-8.29c1.06,2.46.6,5.3-.14,7.87a38.48,38.48,0,0,1-5.3,11.17" style="fill:#e0e0e0"></path><path d="M135.16,384.27a17.59,17.59,0,0,0-9.5,4.81,18,18,0,0,0-5.43,9.33c3.56-.22,6.58-2.73,8.77-5.55s3.7-5.9,6.11-8.53" style="fill:#e0e0e0"></path><path d="M136.46,386a23.4,23.4,0,0,1,2.7-22.16c2.07,7.36,1.31,15.66-2.7,22.16" style="fill:#e0e0e0"></path><path d="M144.35,395.39a16.9,16.9,0,0,0-16.19,9.32c-.2.4-.38.91-.11,1.27a1.21,1.21,0,0,0,1.07.32c3.19-.21,6-2.13,8.36-4.32s4.36-4.71,6.94-6.6" style="fill:#e0e0e0"></path><path d="M144.1,394.88a30.18,30.18,0,0,1-.3-16.85c.59-2.17,1.59-4.45,3.59-5.47a.73.73,0,0,1,.55-.09.7.7,0,0,1,.35.4,10.1,10.1,0,0,1,.85,4.83,30,30,0,0,1-.76,4.89c-.63,3-1,6.21-2.61,8.79a18.79,18.79,0,0,0-1,1.93c-.31.65-.31.88-.6,1.4" style="fill:#e0e0e0"></path><path d="M165,398a21.72,21.72,0,0,1,3.81-17.86c.27-.35.63-.73,1.08-.69.68.06.86,1,.83,1.66A32.28,32.28,0,0,1,165,398" style="fill:#e0e0e0"></path><path d="M166.89,399.28a26,26,0,0,0,21.31-4.34,17.3,17.3,0,0,0-11.54-1.41c-3.85.88-7.38,2.61-9.77,5.75" style="fill:#e0e0e0"></path><path d="M168.47,395.36a24.65,24.65,0,0,1,19.35-11.19,11.94,11.94,0,0,1-6.33,7,34.89,34.89,0,0,1-9.28,2.71c-1.24.24-2.93.51-3.74,1.48" style="fill:#e0e0e0"></path><path d="M165.4,376.33A56.06,56.06,0,0,0,167.87,365a18.87,18.87,0,0,0-2.25-11.21,24.64,24.64,0,0,0-.33,22.93" style="fill:#e0e0e0"></path><path d="M178,370c4.38-8,13.31-14.32,22.35-15.21-3.48,8.68-13,15.39-22.35,15.21" style="fill:#e0e0e0"></path><path d="M175.25,371.52c6.53,1,12.09,5.16,18.19,7.69a8.24,8.24,0,0,0,4.12.79,3.22,3.22,0,0,0,2-5.7,8.69,8.69,0,0,0-3-1.81c-6.64-2.77-13.77-2.84-20.77-1.16" style="fill:#e0e0e0"></path><path d="M171.47,376.1c1.48.42,2,1.18,3.15,2.18a34.17,34.17,0,0,0,13.8,7.09c.53.13,1.22.18,1.48-.29s-.06-.92-.36-1.3a19,19,0,0,0-8.33-5.65c-3.18-1.19-5.94-2.62-9.74-2.31" style="fill:#e0e0e0"></path><path d="M167.21,348.44a26.11,26.11,0,0,0,20,6.81,1.42,1.42,0,0,0,.92-.33c.5-.55-.1-1.39-.69-1.85-5.89-4.59-13-6.49-20.24-4.63" style="fill:#e0e0e0"></path><path d="M172.26,346.59a27.9,27.9,0,0,1,25-4.13,19.78,19.78,0,0,1-11.9,5.23,37.75,37.75,0,0,1-13.08-1.1" style="fill:#e0e0e0"></path><path d="M170.25,333.88c-.58-5.88-.2-10.51-.61-16.42,0-.47-.13-1-.57-1.21-.62-.23-1.13.52-1.33,1.15a18.84,18.84,0,0,0,2.5,16.35" style="fill:#e0e0e0"></path><path d="M169.83,334.53a34.64,34.64,0,0,0,9.73-9.46c1.92-2.63,3.54-5.78,3.11-9a9.29,9.29,0,0,0-7,3.49,19.49,19.49,0,0,0-3.58,7.2c-.78,2.58-1.33,5.24-2.24,7.78" style="fill:#e0e0e0"></path><path d="M179.39,331.87a78.5,78.5,0,0,0,24-14.12c-2.86-1.15-6.14-.46-9,.69a28.35,28.35,0,0,0-15.07,13.37" style="fill:#e0e0e0"></path><path d="M172.52,337.74a48.57,48.57,0,0,0,13.3.06,56.68,56.68,0,0,0,12.41-4.12,1.45,1.45,0,0,0,.84-.64,1,1,0,0,0-.3-1.06,2.53,2.53,0,0,0-1.06-.5,23,23,0,0,0-13.41.8,62.35,62.35,0,0,0-11.78,5.46" style="fill:#e0e0e0"></path><path d="M147.28,348.64a23.53,23.53,0,0,1-.22-19.47c1.84,2.79,2.06,6.35,1.72,9.68s-1.34,6.75-1.41,10.09" style="fill:#e0e0e0"></path><path d="M135.23,342.56a27.17,27.17,0,0,0-20.18,8.6,18.86,18.86,0,0,0,11-2.05,55.9,55.9,0,0,0,9.47-6.34" style="fill:#e0e0e0"></path><path d="M127.13,339.85c-3.69-.3-7.23-.75-10.77.33a12.91,12.91,0,0,0-8.21,7,19.42,19.42,0,0,0,10.09-1.9,59.3,59.3,0,0,0,8.89-5.39" style="fill:#e0e0e0"></path><path d="M139.12,340c-3.31-2.18-6.72-4.39-10.58-5.29s-8.33-.23-11,2.68c3.13,1.83,6.92,2.05,10.54,2s8.06,0,11.47,1.17" style="fill:#e0e0e0"></path><path d="M139.14,340.15c-5.67-5.56-7.81-15.56-5.53-23.16a35.31,35.31,0,0,1,5.53,23.16" style="fill:#e0e0e0"></path><path d="M154.72,324.39c1.07-2.49,1.82-5.09,2.78-7.62a22,22,0,0,1,4-7,10.45,10.45,0,0,1,7-3.63,28.29,28.29,0,0,1-13.62,18.32" style="fill:#e0e0e0"></path><path d="M151.9,327.67c-1.77-2.43-3.81-5.74-6.21-7.55a10.37,10.37,0,0,0-8.45-2.22,19.67,19.67,0,0,0,14.66,9.77" style="fill:#e0e0e0"></path><path d="M152.46,324.59a42.1,42.1,0,0,1-2.79-9,14.13,14.13,0,0,1,1.42-9.21c3.11,5.88,4.11,12.19,1.53,18.33" style="fill:#e0e0e0"></path><path d="M154.75,306.33c1.76-5.82,7.1-10.11,12.86-12.08a4.71,4.71,0,0,1,2.25-.34,2,2,0,0,1,1.66,1.39c.21,1-.61,1.88-1.38,2.53a43.64,43.64,0,0,1-15.39,8.5" style="fill:#e0e0e0"></path><path d="M154.81,301.57c.23-3.76.46-7.57,1.68-11.13s3.58-6.9,7-8.46c.58,3.8-1.1,7.57-3.11,10.84s-4.46,6.34-5.67,10" style="fill:#e0e0e0"></path><path d="M154.72,304.15c-1.46-4.24-1.61-9.64-4.15-13.34-1.78-2.58-4.63-4.35-6.16-7.09a10.85,10.85,0,0,0,.36,8,23.28,23.28,0,0,0,4.71,6.74c1.88,2,3.49,3.52,5.24,5.64" style="fill:#e0e0e0"></path><path d="M154.75,429.23c-.12,0-.21-28.33-.22-63.27s.08-63.28.19-63.28.21,28.32.22,63.28S154.86,429.23,154.75,429.23Z" style="fill:#e0e0e0"></path><path d="M179.51,344.36a5.46,5.46,0,0,1-1.07.4l-2.93,1c-2.47.84-5.87,2.06-9.55,3.57s-7.09,2.84-9.05,4.54a6.69,6.69,0,0,0-1.82,2.4c-.28.67-.33,1.08-.37,1.07a1,1,0,0,1,0-.3,4.08,4.08,0,0,1,.21-.82,6.41,6.41,0,0,1,1.77-2.57,16.16,16.16,0,0,1,3.93-2.44c1.57-.73,3.31-1.5,5.16-2.26,3.7-1.51,7.12-2.69,9.62-3.46,1.25-.39,2.27-.68,3-.87A5.32,5.32,0,0,1,179.51,344.36Z" style="fill:#e0e0e0"></path><path d="M187.62,324.43a1.7,1.7,0,0,1-.29.32c-.25.22-.55.5-.91.85l-3.4,3.08-11.3,10.06c-4.41,3.93-8.22,7.68-10.86,10.5-1.32,1.41-2.36,2.58-3.07,3.4l-.82.93c-.19.22-.3.32-.31.31a2.1,2.1,0,0,1,.24-.36c.18-.23.42-.57.77-1,.67-.85,1.68-2,3-3.48a140,140,0,0,1,10.8-10.61c4.43-3.92,8.45-7.44,11.38-10l3.48-3,1-.8A1.45,1.45,0,0,1,187.62,324.43Z" style="fill:#e0e0e0"></path><path d="M167,342.73c-.11-.05.81-2.18,1.73-4.87s1.36-5,1.48-4.94a17.18,17.18,0,0,1-1.09,5.08,35,35,0,0,1-1.38,3.4A5,5,0,0,1,167,342.73Z" style="fill:#e0e0e0"></path><path d="M154.77,359.88a5,5,0,0,1-.68-.79l-1.74-2.23c-1.46-1.89-3.48-4.5-5.75-7.35s-4.35-5.42-5.86-7.27L139,340a4.94,4.94,0,0,1-.62-.84,6.66,6.66,0,0,1,.74.74c.45.49,1.09,1.22,1.88,2.12,1.56,1.81,3.68,4.34,5.95,7.2s4.26,5.5,5.66,7.44c.71,1,1.27,1.76,1.64,2.31A4.47,4.47,0,0,1,154.77,359.88Z" style="fill:#e0e0e0"></path><path d="M149.34,352.91a10.06,10.06,0,0,1-2.27-4.26,12.39,12.39,0,0,1-.52-4.29l.19,0c-.09.32-.14.5-.18.49s0-.19,0-.52h.18a19.32,19.32,0,0,0,.72,4.18A32.87,32.87,0,0,0,149.34,352.91Z" style="fill:#e0e0e0"></path><path d="M142.34,344.1a7.48,7.48,0,0,0-1.59-.93,10.64,10.64,0,0,0-4.41-.35,26.87,26.87,0,0,0-4.44.72,12.73,12.73,0,0,1-1.83.44,6.22,6.22,0,0,1,1.75-.72,20.88,20.88,0,0,1,4.49-.85,9.63,9.63,0,0,1,4.55.5A2.85,2.85,0,0,1,142.34,344.1Z" style="fill:#e0e0e0"></path><path d="M140.67,342c0,.06-.92-.37-2.43-.89a24.4,24.4,0,0,0-12.26-.93c-1.57.28-2.52.57-2.54.51a2,2,0,0,1,.65-.28,15,15,0,0,1,1.83-.52,21.82,21.82,0,0,1,12.42.95,16.63,16.63,0,0,1,1.74.79C140.47,341.8,140.69,341.93,140.67,342Z" style="fill:#e0e0e0"></path><path d="M154.72,332.92a51.5,51.5,0,0,1-1.78-6.16,49.72,49.72,0,0,1-1.37-6.26,102,102,0,0,1,3.15,12.42Z" style="fill:#e0e0e0"></path><path d="M154.83,332.92a29.76,29.76,0,0,0-2-3.69,16,16,0,0,0-2.9-3c0-.05.48.12,1.12.57A9,9,0,0,1,153.2,329,8.1,8.1,0,0,1,154.83,332.92Z" style="fill:#e0e0e0"></path><path d="M154.75,414.13c-.05,0-.13-.68-.45-1.88a26.56,26.56,0,0,0-1.89-4.91,67.87,67.87,0,0,0-10-14.15c-2.24-2.56-4.42-5-6.26-7.3a51,51,0,0,1-4.48-6.46,31.76,31.76,0,0,1-2.27-4.79c-.2-.59-.36-1.06-.44-1.38a2.84,2.84,0,0,1-.12-.48s.25.64.71,1.8a36,36,0,0,0,2.37,4.71,54,54,0,0,0,4.52,6.37c1.85,2.29,4,4.69,6.28,7.26a64.46,64.46,0,0,1,10,14.29,24.34,24.34,0,0,1,1.79,5,13.56,13.56,0,0,1,.25,1.42A2.69,2.69,0,0,1,154.75,414.13Z" style="fill:#e0e0e0"></path><path d="M177.12,388.86a8.83,8.83,0,0,1-1.17.66,24.9,24.9,0,0,0-3,2,34,34,0,0,0-4,3.64c-1.4,1.48-2.84,3.2-4.32,5-2.94,3.7-5.7,7-7.35,9.59-.84,1.29-1.45,2.38-1.85,3.15a11.1,11.1,0,0,1-.64,1.18s0-.12.11-.33.2-.53.39-.92a31.38,31.38,0,0,1,1.74-3.24,107.7,107.7,0,0,1,7.28-9.68c1.48-1.85,2.94-3.57,4.37-5a32.08,32.08,0,0,1,4.09-3.61,20.59,20.59,0,0,1,3.15-1.92c.38-.2.7-.32.91-.41A1.07,1.07,0,0,1,177.12,388.86Z" style="fill:#e0e0e0"></path><path d="M177.56,397.06a18.16,18.16,0,0,1-2.48.36,32.43,32.43,0,0,0-5.88,1.15,17.76,17.76,0,0,0-5.26,2.77c-1.21.93-1.79,1.71-1.84,1.66a2,2,0,0,1,.37-.57,9,9,0,0,1,1.29-1.32,16,16,0,0,1,5.32-2.93,26.28,26.28,0,0,1,6-1.05A13,13,0,0,1,177.56,397.06Z" style="fill:#e0e0e0"></path><path d="M162.82,402.1c-.13-.07,1-1.78,1.86-4.07s1-4.35,1.15-4.32a3.92,3.92,0,0,1-.05,1.33,13.86,13.86,0,0,1-.72,3.13,14.63,14.63,0,0,1-1.44,2.87C163.18,401.73,162.87,402.13,162.82,402.1Z" style="fill:#e0e0e0"></path><path d="M184.37,366.85a2.69,2.69,0,0,1-.4.21l-1.16.53c-.51.22-1.13.49-1.83.86s-1.52.74-2.37,1.25l-1.35.77c-.47.27-.93.59-1.43.89-1,.61-2,1.35-3.06,2.11a59.14,59.14,0,0,0-6.39,5.62,58,58,0,0,0-5.4,6.58c-.72,1.09-1.43,2.12-2,3.14-.29.5-.6,1-.85,1.45l-.72,1.38c-.48.87-.83,1.7-1.17,2.41s-.6,1.34-.8,1.85l-.49,1.19a2.4,2.4,0,0,1-.19.4s0-.15.12-.43.25-.72.41-1.21.42-1.17.74-1.89.65-1.57,1.12-2.45c.22-.45.46-.91.7-1.4s.55-1,.84-1.48c.56-1,1.26-2.07,2-3.17a50.75,50.75,0,0,1,11.88-12.29c1.08-.76,2.09-1.5,3.1-2.09.5-.31,1-.62,1.45-.89l1.37-.75c.87-.49,1.7-.85,2.41-1.19s1.34-.61,1.86-.81l1.2-.46A1.9,1.9,0,0,1,184.37,366.85Z" style="fill:#e0e0e0"></path><path d="M166.66,378.71a2.85,2.85,0,0,1,1-1.45,6.19,6.19,0,0,1,3.93-1.5,10.69,10.69,0,0,1,4.13.8,6,6,0,0,1,1.56.76,8.54,8.54,0,0,1-1.66-.48,12.27,12.27,0,0,0-4-.67,6.48,6.48,0,0,0-3.75,1.31A13.08,13.08,0,0,0,166.66,378.71Z" style="fill:#e0e0e0"></path><path d="M164,381.44a14.45,14.45,0,0,0,1.12-3.62,15.05,15.05,0,0,0-.25-3.78,2.37,2.37,0,0,1,.46,1,7.46,7.46,0,0,1,.19,2.78,7.13,7.13,0,0,1-.83,2.65C164.36,381.15,164.05,381.47,164,381.44Z" style="fill:#e0e0e0"></path><path d="M135.18,418.19c.61,10.83,3.87,21.84,8.89,33H165.9c4.78-11,7.82-22,8.36-33Z" style="fill:#e0e0e0"></path><path d="M170.72,435.71c0,.11-7.18.21-16.05.21s-16-.1-16-.21,7.19-.2,16-.2S170.72,435.6,170.72,435.71Z" style="fill:#fafafa"></path><path d="M170.23,439.63c0,.12-6.73.21-15,.21s-15.05-.09-15.05-.21,6.74-.2,15.05-.2S170.23,439.52,170.23,439.63Z" style="fill:#fafafa"></path><path d="M144.42,425.3a60.23,60.23,0,0,1,0,10.05,63.23,63.23,0,0,1,0-10.05Z" style="fill:#fafafa"></path><path d="M156.12,425.3a67.83,67.83,0,0,1,0,10.41,64.61,64.61,0,0,1,0-10.41Z" style="fill:#fafafa"></path><path d="M167.09,425.21a67.24,67.24,0,0,1,0,10.62,70.59,70.59,0,0,1,0-10.62Z" style="fill:#fafafa"></path><path d="M173.57,425.3c0,.11-8.43.2-18.83.2s-18.82-.09-18.82-.2,8.43-.21,18.82-.21S173.57,425.19,173.57,425.3Z" style="fill:#fafafa"></path><rect x="345.62" y="60.44" width="103.37" height="171.1" style="fill:#e0e0e0"></rect><rect x="342.18" y="60.44" width="103.37" height="171.1" style="fill:#ebebeb"></rect><rect x="346.58" y="63.91" width="94.56" height="164.16" style="fill:#fff"></rect><rect x="364.59" y="85.24" width="58.15" height="121.5" style="fill:#ebebeb"></rect><path d="M364.59,163.75c-.14-11.35,10.07-22.43,21.31-24C391.26,139,397,140,402,138c8.94-3.67,11.78-15.54,20.78-19.07l.41,87.82H364.59Z" style="fill:#e0e0e0"></path><rect x="215.03" y="42.91" width="73.1" height="76.2" style="fill:#e0e0e0"></rect><rect x="210.08" y="42.91" width="73.1" height="76.2" style="fill:#fafafa"></rect><path d="M283.21,119.14H210.06V42.89h73.15Zm-73.11,0h73.06V42.93H210.1Z" style="fill:#e0e0e0"></path><rect x="219.91" y="53.16" width="53.45" height="55.71" style="fill:#fff"></rect><path d="M219.91,109.24a9.14,9.14,0,0,1-1.32,1.53c-.85.9-2.05,2.12-3.4,3.45s-2.58,2.5-3.49,3.34a9.18,9.18,0,0,1-1.54,1.29,7.74,7.74,0,0,1,1.31-1.53c.85-.9,2.05-2.12,3.4-3.45s2.59-2.51,3.5-3.35A8.21,8.21,0,0,1,219.91,109.24Z" style="fill:#e0e0e0"></path><path d="M273.36,109.1a9.14,9.14,0,0,1,1.53,1.32c.9.86,2.12,2.06,3.44,3.4s2.51,2.58,3.35,3.49a8.18,8.18,0,0,1,1.28,1.55,9.22,9.22,0,0,1-1.52-1.32c-.9-.85-2.13-2.05-3.46-3.4s-2.51-2.59-3.34-3.5A7.85,7.85,0,0,1,273.36,109.1Z" style="fill:#e0e0e0"></path><path d="M273.21,53.3a9.14,9.14,0,0,1,1.32-1.53c.85-.9,2.05-2.12,3.4-3.44s2.58-2.51,3.49-3.35A8.76,8.76,0,0,1,283,43.7a8.8,8.8,0,0,1-1.31,1.52c-.85.91-2,2.13-3.4,3.46s-2.59,2.51-3.5,3.34A8.21,8.21,0,0,1,273.21,53.3Z" style="fill:#e0e0e0"></path><path d="M219.76,53.44a8.57,8.57,0,0,1-1.53-1.32c-.9-.85-2.12-2-3.45-3.4s-2.5-2.58-3.34-3.49a8.76,8.76,0,0,1-1.28-1.54A8.8,8.8,0,0,1,211.68,45c.9.85,2.13,2.06,3.45,3.41s2.51,2.58,3.35,3.49A8.21,8.21,0,0,1,219.76,53.44Z" style="fill:#e0e0e0"></path><path d="M273.21,108.87s0-.1,0-.27,0-.45,0-.78c0-.7,0-1.7,0-3,0-2.64,0-6.48-.05-11.35,0-9.76-.06-23.66-.11-40.3l.21.2-53.3,0h0l.24-.23c0,20.45,0,39.58,0,55.71l-.2-.2,38.59.1,10.84,0,2.87,0h.05l-2.83,0-10.8,0-38.72.1h-.2v-.2c0-16.13,0-35.26,0-55.71v-.24h.24l53.3,0h.21v.21c-.05,16.69-.08,30.64-.11,40.43,0,4.86,0,8.68-.05,11.31q0,1.93,0,3c0,.32,0,.57,0,.75A2.28,2.28,0,0,1,273.21,108.87Z" style="fill:#e0e0e0"></path><rect x="237.72" y="72.1" width="17.83" height="17.83" style="fill:#ebebeb"></rect><polygon points="161.93 72.41 161.93 148.45 52.72 148.45 48.78 72.94 161.93 72.41" style="fill:#e0e0e0"></polygon><rect x="65.71" y="56.01" width="75.35" height="109.21" transform="translate(-7.23 214) rotate(-90)" style="fill:#f5f5f5"></rect><path d="M158.51,148.8H48.26V72.42H158.51Zm-109.21-1H157.47V73.46H49.3Z" style="fill:#e0e0e0"></path><rect x="60.61" y="82.3" width="85.55" height="56.62" style="fill:#fff"></rect><path d="M146.16,82.3l-.42,0h-1.22l-4.69,0-17.64.07-61.58.12.25-.25c0,17.3,0,36.47,0,56.62h0l-.27-.27,85.55.05-.21.22c0-17.24.08-31.36.11-41.2,0-4.92,0-8.76.05-11.4,0-1.3,0-2.3,0-3s0-1,0-1,0,.33,0,1,0,1.67,0,3c0,2.62,0,6.45,0,11.34,0,9.87.07,24,.12,41.34v.21h-.22l-85.55.06h-.27v-.27h0c0-20.15,0-39.32,0-56.62v-.25h.25l61.75.13,17.57.06,4.65,0,1.19,0Z" style="fill:#e0e0e0"></path><path d="M48.78,72.73A9,9,0,0,1,50.66,74c1.12.8,2.64,2,4.28,3.26S58,79.77,59,80.7a9,9,0,0,1,1.57,1.6,75.44,75.44,0,0,1-6-4.67A58.89,58.89,0,0,1,48.78,72.73Z" style="fill:#e0e0e0"></path><path d="M158,72.94a52.12,52.12,0,0,1-5.75,4.89,51.57,51.57,0,0,1-6.08,4.47,54.81,54.81,0,0,1,5.75-4.89A53,53,0,0,1,158,72.94Z" style="fill:#e0e0e0"></path><path d="M157.9,148.3l-12.17-9.87" style="fill:#fff"></path><path d="M145.73,138.43a58,58,0,0,1,6.26,4.72,55.68,55.68,0,0,1,5.91,5.15,58.37,58.37,0,0,1-6.25-4.73A55.88,55.88,0,0,1,145.73,138.43Z" style="fill:#e0e0e0"></path><path d="M48.78,148.29a50.41,50.41,0,0,1,5.69-4.84,51.13,51.13,0,0,1,6-4.42,54.21,54.21,0,0,1-5.69,4.84A52.56,52.56,0,0,1,48.78,148.29Z" style="fill:#e0e0e0"></path><rect x="95.42" y="82.51" width="18.96" height="53.83" transform="translate(-4.53 214.32) rotate(-90)" style="fill:#e0e0e0"></rect></g><g id="freepik--Floor--inject-110"><path d="M453.4,449.83c0,.14-92.86.26-207.39.26S38.6,450,38.6,449.83s92.84-.26,207.41-.26S453.4,449.69,453.4,449.83Z" style="fill:#263238"></path></g><g id="freepik--speech-bubble--inject-110"><path d="M363,144.23,357.46,147a23.71,23.71,0,1,1,1.78-8.29v0Z" style="fill:#fff"></path><path d="M363,144.23l-.26-.36c-.18-.26-.43-.6-.74-1.05-.65-.94-1.6-2.29-2.81-4l.15,0h0a.1.1,0,0,1-.11.06.09.09,0,0,1-.06-.09,23.58,23.58,0,0,0-2.41-11.05,24,24,0,0,0-4.32-6.09,23.56,23.56,0,0,0-6.92-4.87,24,24,0,0,0-9.1-2.12,22.82,22.82,0,0,0-9.92,1.82,24,24,0,0,0-8.65,6.34,23,23,0,0,0-5,10,24.24,24.24,0,0,0-.6,5.74c.07,1,.11,1.91.25,2.85l.26,1.39.13.69.2.67a24,24,0,0,0,5.19,9.51,22.94,22.94,0,0,0,8.32,5.87,23.88,23.88,0,0,0,9.23,1.86,23.53,23.53,0,0,0,8.38-1.56L346,159c.59-.27,1.13-.62,1.68-.92a21.08,21.08,0,0,0,3-2.06,23.62,23.62,0,0,0,6.74-9.06s0,0,0,0l4.11-2,1.08-.52.38-.18-.34.19-1,.55-4.1,2.14,0,0a23.56,23.56,0,0,1-6.73,9.2,21.79,21.79,0,0,1-3,2.11c-.55.3-1.1.65-1.7.94l-1.83.82a23.89,23.89,0,0,1-8.49,1.62,24.46,24.46,0,0,1-9.38-1.86,23.23,23.23,0,0,1-8.47-6,24.16,24.16,0,0,1-5.3-9.67l-.2-.68-.14-.71c-.08-.47-.17-.94-.26-1.41-.14-.95-.19-1.93-.25-2.9a24.18,24.18,0,0,1,.6-5.85,23.32,23.32,0,0,1,5.12-10.22,24.41,24.41,0,0,1,8.81-6.45,23.33,23.33,0,0,1,10.09-1.83,24.3,24.3,0,0,1,9.24,2.19,23.73,23.73,0,0,1,7,5,24.4,24.4,0,0,1,4.34,6.19,23.62,23.62,0,0,1,2.33,11.19l-.17,0h0a.1.1,0,0,1,.11-.06l.05,0c1.19,1.8,2.12,3.18,2.76,4.14l.69,1.06A3.24,3.24,0,0,1,363,144.23Z" style="fill:#263238"></path><polygon points="325.29 138.75 328.25 135.58 334.34 140.63 345.56 129.07 348.51 132.04 334.11 146.56 325.29 138.75" style="fill:#7E57C2"></polygon></g><g id="freepik--character-2--inject-110"><path d="M344.83,218.58l-16.7-16.42-9.81,9.49s13.6,19.67,17.52,26a22.94,22.94,0,0,0,7,7.12,4.64,4.64,0,0,0,5.27-.19,33.35,33.35,0,0,0,7.21-6.88c3.41-4.76,12.37-20.92,12.37-20.92L355,203.41Z" style="fill:#ffbf9d"></path><path d="M345.35,227.62a15.86,15.86,0,0,0,.18-4.9,15.49,15.49,0,0,0-.91-4.82c-.12,0,.29,2.18.49,4.85S345.22,227.61,345.35,227.62Z" style="fill:#ff9a6c"></path><path d="M383.4,126.93a18.81,18.81,0,0,1,18-18.07l1,0c10.53.18,16.26,9.22,15.79,19.74l-1.32,42.37-16.66,6.35-6.43-5.92c0-3,0-9.1-.06-9.1S383.56,161.1,383,151C382.76,146.13,383,136.05,383.4,126.93Z" style="fill:#ffbf9d"></path><path d="M393.73,162.26a24.43,24.43,0,0,0,13-4.43s-2.85,7.72-13,7.22Z" style="fill:#ff9a6c"></path><path d="M387.12,136a1.45,1.45,0,0,0,1.45,1.4A1.38,1.38,0,0,0,390,136a1.44,1.44,0,0,0-1.44-1.4A1.39,1.39,0,0,0,387.12,136Z" style="fill:#263238"></path><path d="M385.73,131.3c.18.18,1.24-.67,2.8-.73s2.72.67,2.88.47-.12-.42-.63-.76a3.91,3.91,0,0,0-2.32-.61,3.71,3.71,0,0,0-2.21.82C385.78,130.87,385.64,131.22,385.73,131.3Z" style="fill:#263238"></path><path d="M400.37,135.64a1.45,1.45,0,0,0,1.45,1.4,1.37,1.37,0,0,0,1.43-1.36,1.43,1.43,0,0,0-1.44-1.4A1.39,1.39,0,0,0,400.37,135.64Z" style="fill:#263238"></path><path d="M401,131c.19.18,1.25-.67,2.8-.73s2.72.67,2.88.47-.11-.42-.62-.76a4,4,0,0,0-2.32-.61,3.72,3.72,0,0,0-2.22.82C401,130.6,400.86,131,401,131Z" style="fill:#263238"></path><path d="M395.88,143.18a11.23,11.23,0,0,0-2.54-.35c-.4,0-.78-.08-.85-.35a2,2,0,0,1,.21-1.19c.34-1,.68-2,1.05-3.06,1.45-4.37,2.48-7.95,2.31-8s-1.5,3.43-2.95,7.79l-1,3.08a2.36,2.36,0,0,0-.14,1.57,1,1,0,0,0,.68.55,2.9,2.9,0,0,0,.68.07A9.7,9.7,0,0,0,395.88,143.18Z" style="fill:#263238"></path><path d="M400.25,126.2c.23.38,1.72-.09,3.55-.21s3.37.11,3.54-.31c.07-.2-.25-.54-.91-.84a6,6,0,0,0-2.75-.42,5.84,5.84,0,0,0-2.65.82C400.42,125.62,400.15,126,400.25,126.2Z" style="fill:#263238"></path><path d="M385.47,126.74c.33.34,1.58-.06,3.1-.11s2.82.16,3.1-.22c.13-.18-.08-.53-.65-.85a5,5,0,0,0-2.54-.51,4.79,4.79,0,0,0-2.46.78C385.49,126.2,385.32,126.57,385.47,126.74Z" style="fill:#263238"></path><path d="M417.69,136.07c.17-.08,6.85-2.34,6.92,4.58s-6.89,5.55-6.91,5.35S417.69,136.07,417.69,136.07Z" style="fill:#ffbf9d"></path><path d="M419.79,143.36s.12.08.33.18a1.24,1.24,0,0,0,.9,0,3,3,0,0,0,1.35-2.69,4.1,4.1,0,0,0-.35-1.72,1.44,1.44,0,0,0-.92-.92.62.62,0,0,0-.71.34c-.09.19,0,.33-.08.34s-.15-.11-.09-.4a.72.72,0,0,1,.26-.43.89.89,0,0,1,.67-.18,1.68,1.68,0,0,1,1.27,1.06,4.21,4.21,0,0,1,.43,1.92,3.12,3.12,0,0,1-1.73,3,1.3,1.3,0,0,1-1.1-.17C419.8,143.53,419.77,143.37,419.79,143.36Z" style="fill:#ff9a6c"></path><path d="M400.75,144.14c-.23,0-.24,1.58-1.61,2.7s-3.05.94-3.06,1.16.37.31,1.09.33a3.93,3.93,0,0,0,2.56-.88,3.41,3.41,0,0,0,1.24-2.26C401,144.53,400.86,144.14,400.75,144.14Z" style="fill:#263238"></path><path d="M369.44,117.83a1.68,1.68,0,0,1,.76-1,5,5,0,0,1,2.58-.45,14.59,14.59,0,0,0,6.31-1.66,7.09,7.09,0,0,1-1.87-1.29,4.33,4.33,0,0,1-1.3-4.3.94.94,0,0,1,.53-.66c.45-.15.85.29,1.17.64a3.73,3.73,0,0,0,3.53,1.45,6.15,6.15,0,0,0,2.62-.81l.08-.1,1-1.08h0c2.57-2.61,4.79-4.42,7.08-5.37a23.41,23.41,0,0,1,12.53-1.13c3.52.88,6.72,3.7,7.25,7.3,1.95-1.69,4.91-1.71,7.33-.77l.06,0c2.69.92,4.24,3.73,5.06,6.46.05.14.08.3.13.44A10.54,10.54,0,0,0,428,119c.26.15.56.33.59.63s-.21.54-.45.72a5.42,5.42,0,0,1-2.15.92,11.91,11.91,0,0,0,.9,1.87c.31.51.68,1.12.42,1.65a1.13,1.13,0,0,1-1.18.53,3.33,3.33,0,0,1-1.25-.55c.31.71.62,1.43.92,2.14a6.37,6.37,0,0,1-2.91-.16c-.54,2.55-.91,7.29-1.55,9-1.84.06-2.28-.14-3.21.18-1.19.41-.71,2.53-2.27,1.94-.8-.3-2-3.29-2.33-4.09a39.56,39.56,0,0,1-1.9-16.69,12.57,12.57,0,0,0-3.95-2.78l.13.1c-2.84-1-6.05-1.88-8.72-.52-2.06,1-3.26,3.23-4.8,5a14.5,14.5,0,0,1-10.62,5.31c-.36,3.06-.42,8-.54,10.9l-2.49-5.67v0a10.67,10.67,0,0,1-.53-1l-.06-.1h0a15.41,15.41,0,0,0-.82-1.62l0,0a1.78,1.78,0,0,1-2.63-2.35,4.17,4.17,0,0,1,.85-.88,2.8,2.8,0,0,1-2.67.73,2.21,2.21,0,0,1-1.59-2.17,1.87,1.87,0,0,1,1.1-1.51,6.31,6.31,0,0,1-3.61-.76C369.92,119.39,369.21,118.73,369.44,117.83Z" style="fill:#263238"></path><path d="M408.59,110.61a8.33,8.33,0,0,1,1,.91,7.31,7.31,0,0,1,1.59,3.34,12.7,12.7,0,0,1,.29,2.57c0,.93-.05,1.93-.11,3a28,28,0,0,0,0,3.32,11.71,11.71,0,0,0,.25,1.75,3.6,3.6,0,0,0,.74,1.69,1.51,1.51,0,0,0,1.43.46,2.29,2.29,0,0,0,1.28-.74,5.21,5.21,0,0,0,.94-2.58l-.21,0a8.28,8.28,0,0,0,1.25,2.1,3,3,0,0,0,2,1,1.92,1.92,0,0,0,1-.19,1.73,1.73,0,0,0,.71-.71,1.79,1.79,0,0,0,.2-.9,1.26,1.26,0,0,0-.33-.78l-.11.1a6.4,6.4,0,0,0,2.19,1.6,6.1,6.1,0,0,0,.68.26.91.91,0,0,0,.24,0l-.23-.09c-.15-.06-.37-.15-.65-.29a6.52,6.52,0,0,1-2.12-1.63l-.11.1a1.3,1.3,0,0,1,.09,1.5,1.62,1.62,0,0,1-.64.63,1.74,1.74,0,0,1-.94.16,2.84,2.84,0,0,1-1.84-1,8.47,8.47,0,0,1-1.21-2.06l-.15-.32-.06.35a5,5,0,0,1-.9,2.47,2,2,0,0,1-1.14.66,1.3,1.3,0,0,1-1.22-.39,3.41,3.41,0,0,1-.68-1.58,11.34,11.34,0,0,1-.24-1.71,25.69,25.69,0,0,1,0-3.29c0-1.06.11-2.06.09-3a12.84,12.84,0,0,0-.32-2.6,7.22,7.22,0,0,0-1.69-3.37A4.2,4.2,0,0,0,408.59,110.61Z" style="fill:#455a64"></path><path d="M377.4,120.81l.08.06.26.19a4.19,4.19,0,0,0,.43.27c.18.09.38.21.62.31a8.83,8.83,0,0,0,4.34.73,11.42,11.42,0,0,0,6.08-2.32,20.07,20.07,0,0,0,5.18-6.11c.72-1.23,1.3-2.49,1.95-3.66a13.34,13.34,0,0,1,2.23-3.11,6.87,6.87,0,0,1,2.89-1.8,4.86,4.86,0,0,1,1.54-.19,5.34,5.34,0,0,1,1.41.25,5.84,5.84,0,0,1,2.12,1.25,5.76,5.76,0,0,1,1.16,1.47,7.24,7.24,0,0,1,.54,1.51.87.87,0,0,0,0-.11c0-.08,0-.19-.05-.31a5.24,5.24,0,0,0-.4-1.14,5.73,5.73,0,0,0-1.15-1.52,5.86,5.86,0,0,0-2.16-1.31A6.1,6.1,0,0,0,403,105a5.17,5.17,0,0,0-1.59.19,7.16,7.16,0,0,0-3,1.84,13.43,13.43,0,0,0-2.27,3.15c-.66,1.17-1.24,2.43-2,3.65a19.75,19.75,0,0,1-5.1,6.05,11.44,11.44,0,0,1-6,2.34,9.18,9.18,0,0,1-4.29-.65A14.24,14.24,0,0,1,377.4,120.81Z" style="fill:#455a64"></path><path d="M376.43,116.37s.12.1.37.25a7.24,7.24,0,0,0,1.08.53,10.36,10.36,0,0,0,1.7.54,12,12,0,0,0,2.18.27,11.56,11.56,0,0,0,2.19-.18,9.32,9.32,0,0,0,1.73-.47,7.31,7.31,0,0,0,1.1-.48,1.67,1.67,0,0,0,.38-.24s-.58.26-1.53.57a12.87,12.87,0,0,1-1.72.41,13.07,13.07,0,0,1-2.14.15,12.6,12.6,0,0,1-2.14-.24,11.7,11.7,0,0,1-1.69-.48C377,116.65,376.45,116.33,376.43,116.37Z" style="fill:#455a64"></path><path d="M384.21,423.89l1.11,20.31s-20.27,7.95-20.43,11.72l39.45-.74-.43-31.71Z" style="fill:#263238"></path><path d="M397.49,442.26a1.62,1.62,0,0,1,1.15,1.82,1.56,1.56,0,0,1-1.8,1.15,1.69,1.69,0,0,1-1.2-1.93,1.6,1.6,0,0,1,2-1" style="fill:#e0e0e0"></path><path d="M404.4,455.19l-.09-3-37.9,1.72s-1.74.8-1.52,2Z" style="fill:#455a64"></path><path d="M385.5,444.27c0,.19,1,.26,1.93.86s1.48,1.4,1.66,1.32-.14-1.19-1.31-1.89S385.45,444.09,385.5,444.27Z" style="fill:#fff"></path><path d="M381,446.06c0,.19.8.5,1.47,1.3s.87,1.66,1.06,1.65.3-1.1-.55-2.09S381,445.87,381,446.06Z" style="fill:#fff"></path><path d="M378.52,451.1c.18,0,.43-.93-.08-2s-1.43-1.44-1.51-1.28.49.71.9,1.58S378.33,451.09,378.52,451.1Z" style="fill:#fff"></path><path d="M384.94,439.35c.08.18,1-.1,2.05-.05s1.95.38,2,.21-.73-.84-2-.88S384.84,439.2,384.94,439.35Z" style="fill:#fff"></path><path d="M425.44,420.2l2.14,24.52-3.91,19.87a2.53,2.53,0,0,0,2.16,3h0a2.52,2.52,0,0,0,2.17-.79c3.52-3.84,16.38-18,16.13-19.79-.3-2.07-.54-26-.54-26Z" style="fill:#263238"></path><path d="M425.83,467.58,444,445.34l.07,1a3,3,0,0,1-.45,2.27c-1.44,1.93-5.83,7.43-15.56,18.13a2.52,2.52,0,0,1-2.25.8Z" style="fill:#455a64"></path><path d="M430.76,456.49a7.85,7.85,0,0,0-2.28-1.77,7.53,7.53,0,0,0-2.86-.36c0-.06.27-.27.84-.39a4,4,0,0,1,4,1.65C430.75,456.1,430.82,456.46,430.76,456.49Z" style="fill:#fff"></path><path d="M429.22,459.89A21.28,21.28,0,0,0,427,459a20.12,20.12,0,0,0-2.42-.15,2.79,2.79,0,0,1,2.54-.37C428.57,458.78,429.34,459.81,429.22,459.89Z" style="fill:#fff"></path><path d="M433.74,452.07a23.9,23.9,0,0,0-3.36-1.65,26.34,26.34,0,0,0-3.7-.62,6.87,6.87,0,0,1,7.06,2.27Z" style="fill:#fff"></path><path d="M433.71,444.56c0,.15-1.44-.33-3.21-.28s-3.14.56-3.21.42a4.85,4.85,0,0,1,3.2-1A4.8,4.8,0,0,1,433.71,444.56Z" style="fill:#fff"></path><path d="M433.27,437.35a8,8,0,0,0-6.55.65c0-.05.21-.38.75-.74a5.32,5.32,0,0,1,2.4-.83,5.38,5.38,0,0,1,2.52.34C433,437,433.3,437.29,433.27,437.35Z" style="fill:#fff"></path><path d="M429.88,435.59a2.21,2.21,0,0,1-.09-.92,6.49,6.49,0,0,1,.58-2.48,2.91,2.91,0,0,1,1.14-1.45,1,1,0,0,1,1.16.16,1.64,1.64,0,0,1,.45,1.08,3.55,3.55,0,0,1-2.9,3.49,4.13,4.13,0,0,1-4.19-1.9,1.38,1.38,0,0,1-.14-1.18,1,1,0,0,1,1-.6,3.63,3.63,0,0,1,1.67.74,7.35,7.35,0,0,1,1.8,1.8,2.2,2.2,0,0,1,.43.82,11.58,11.58,0,0,0-2.44-2.3,3.39,3.39,0,0,0-1.47-.61.53.53,0,0,0-.55.32,1,1,0,0,0,.14.77,3.69,3.69,0,0,0,3.65,1.61,3.09,3.09,0,0,0,2.51-2.93,1.24,1.24,0,0,0-.29-.77.54.54,0,0,0-.64-.09,2.58,2.58,0,0,0-1,1.2A9.64,9.64,0,0,0,429.88,435.59Z" style="fill:#fff"></path><path d="M367,267.33s-6.63,10.34-5.65,23.07c.38,4.92,17.66,149.18,17.66,149.18l29.46.24L398.41,303.63l1.84.4s9.5,49.41,10.5,58.25c.9,8,10.67,77.13,10.67,77.13l24.92.29L441.62,360l-4-74.34-9.4-23.26Z" style="fill:#7E57C2"></path><polygon points="429.53 171.51 416.64 167.16 393 168.24 382.2 173.39 398.99 207.72 410.04 206.12 429.53 171.51" style="fill:#ffbf9d"></polygon><path d="M345.61,214.31s18.05-35.52,19.49-37c5.41-5.65,27.53-9.4,27.53-9.4l10.55,10.17,14.58-10.79s24.05,5.53,25.18,8.67-8.11,57.65-8.11,57.65,3.85,30.76,3.54,44.52l3.44,14.26-82.9.22s1.89-28,5-53.38l1.9-22.46-1.24,14.68Z" style="fill:#7E57C2"></path><path d="M369.94,182.49a3.37,3.37,0,0,0-.11.52c-.07.4-.16.9-.26,1.51-.21,1.32-.5,3.22-.83,5.57-.67,4.72-1.51,11.24-2.29,18.46s-1.37,13.78-1.76,18.53c-.17,2.32-.32,4.23-.42,5.62,0,.62-.07,1.13-.1,1.53a3.72,3.72,0,0,0,0,.54,1.9,1.9,0,0,0,.09-.53c0-.4.1-.9.17-1.52.14-1.39.33-3.29.56-5.61.46-4.74,1.1-11.29,1.88-18.51s1.57-13.74,2.16-18.46c.29-2.31.53-4.21.7-5.59.07-.62.13-1.12.18-1.52A1.84,1.84,0,0,0,369.94,182.49Z" style="fill:#263238"></path><path d="M435.79,172.63l4,1.15a15.33,15.33,0,0,1,11,11.78l7.45,41.87L434.61,236l-8.07-6.35Z" style="fill:#7E57C2"></path><path d="M359.38,284.1l.19,0,.57.09,2.16.37c1.88.3,4.61.72,8,1a36.6,36.6,0,0,0,5.54,0,10.9,10.9,0,0,0,1.49-.21c.25-.05.51-.09.75-.15l.74-.25c1-.27,1.53-1.31,2-2.29a18,18,0,0,0,1-3.27c.26-1.14.47-2.32.63-3.53.35-2.42.57-4.95.73-7.54.34-5.66.38-11.05.3-15.81l.2.19-15.76-.33-4.47-.12-1.19-.05-.4,0,.4,0h1.19l4.48,0,15.75.17h.19v.19c.11,4.78.07,10.17-.26,15.85-.17,2.6-.39,5.13-.74,7.57-.17,1.21-.38,2.41-.65,3.56a18.28,18.28,0,0,1-1,3.34,7.3,7.3,0,0,1-.84,1.49,5.1,5.1,0,0,1-.61.62,2.85,2.85,0,0,1-.76.38l-.78.25c-.26.07-.52.11-.78.16a11.48,11.48,0,0,1-1.53.21,36.83,36.83,0,0,1-5.59,0,77,77,0,0,1-8-1.1c-.94-.18-1.66-.34-2.15-.45l-.55-.13Z" style="fill:#263238"></path><path d="M383.44,258c0,.12-5,.22-11.22.22S361,258.11,361,258s5-.22,11.22-.22S383.44,257.87,383.44,258Z" style="fill:#263238"></path><path d="M432.74,292.58c0,.12-16.26.22-36.31.22s-36.32-.1-36.32-.22,16.25-.22,36.32-.22S432.74,292.46,432.74,292.58Z" style="fill:#263238"></path><rect x="411.38" y="207.72" width="16.39" height="11.68" rx="0.77" style="fill:#fff"></rect><path d="M412.15,219.4s-.22.09-.55-.15a.82.82,0,0,1-.3-.64c0-.27,0-.58,0-.92,0-1.46,0-3.45-.08-5.87,0-.62,0-1.27,0-1.95v-1a2.43,2.43,0,0,1,0-.59,1,1,0,0,1,.38-.56,1,1,0,0,1,.65-.19h1.71l2.39,0,10.67,0a1.06,1.06,0,0,1,.82.41,1.15,1.15,0,0,1,.21.82v4.12c0,1.78,0,3.5,0,5.14v.61a1,1,0,0,1-.23.71,1,1,0,0,1-.67.36h-2.87l-4.06,0-5.87-.08-1.6,0a2,2,0,0,1-.55-.06,3.43,3.43,0,0,1,.55-.05l1.6,0,5.87-.08,4.06,0h2.82a.57.57,0,0,0,.36-.2.53.53,0,0,0,.12-.41V218c0-1.64,0-3.36,0-5.14,0-.9,0-1.8,0-2.73v-1.39a.7.7,0,0,0-.1-.51.58.58,0,0,0-.41-.2l-10.67,0h-4.1a.72.72,0,0,0-.4.1c-.24.17-.25.41-.24.8v1c0,.68,0,1.33,0,1.95,0,2.42-.06,4.41-.08,5.87,0,.34,0,.65,0,.92a.73.73,0,0,0,.22.56A1,1,0,0,0,412.15,219.4Z" style="fill:#263238"></path><path d="M414.09,213.9a1.8,1.8,0,1,0,1.8-1.79A1.81,1.81,0,0,0,414.09,213.9Z" style="fill:#7E57C2"></path><rect x="418.82" y="213.32" width="6.7" height="1.15" rx="0.45" transform="translate(844.35 427.8) rotate(180)" style="fill:#e0e0e0"></rect><polyline points="420.85 209.54 422.58 204.89 416.56 204.89 418.02 209.54 420.85 209.54" style="fill:#263238"></polyline><path d="M391.41,203.91a2,2,0,0,0,.18.42l.58,1.14c.51,1,1.3,2.39,2.34,4.09s2.34,3.69,3.88,5.83,3.35,4.4,5.36,6.68,4.06,4.34,6,6.14,3.74,3.34,5.3,4.57,2.86,2.19,3.78,2.82l1.07.72a1.55,1.55,0,0,0,.38.22,1.92,1.92,0,0,0-.34-.29l-1-.79c-.89-.66-2.15-1.65-3.69-2.91s-3.31-2.82-5.22-4.62-3.92-3.88-5.93-6.14-3.79-4.53-5.36-6.63-2.88-4.07-3.94-5.75-1.9-3.06-2.44-4l-.66-1.1A2.63,2.63,0,0,0,391.41,203.91Z" style="fill:#263238"></path><path d="M415.45,257.63a3,3,0,0,0-.37-.45l-1.14-1.24c-.5-.53-1.11-1.18-1.79-2s-1.49-1.63-2.33-2.63c-1.71-2-3.67-4.37-5.77-7.1s-4.27-5.83-6.43-9.16-4-6.62-5.69-9.65-3-5.81-4.08-8.18c-.57-1.17-1-2.26-1.44-3.21s-.77-1.76-1.05-2.44-.48-1.15-.65-1.54a1.91,1.91,0,0,0-.26-.53,4.3,4.3,0,0,0,.18.56l.58,1.57c.25.69.57,1.52,1,2.47s.84,2.06,1.38,3.24c1.05,2.39,2.41,5.19,4,8.25s3.53,6.33,5.68,9.69,4.38,6.43,6.47,9.17,4.11,5.12,5.85,7.06c.86,1,1.68,1.84,2.38,2.59s1.33,1.4,1.85,1.92l1.2,1.18A3.41,3.41,0,0,0,415.45,257.63Z" style="fill:#263238"></path><path d="M440.73,189.18c-.12,0-1.52,10.62-3.13,23.75s-2.82,23.78-2.7,23.79S436.41,226.1,438,213,440.84,189.19,440.73,189.18Z" style="fill:#263238"></path><path d="M437.17,321.33a1.36,1.36,0,0,0,2.19.1c.54-.5,1.11-6,1.11-6l1.29-7.37-.24,14s.15,1.33,1.2,1.38,1.74-1.49,1.74-1.49L446,307.51s-.49,8,0,8.46c.72.57,1.38.38,1.62-.24.49-1.25,1.19-8.49,1.19-8.49l.67-13.77.7-6.64L437.31,286l-.57,3.93s-5.1,3.84-6.21,5.36-3.88,6.94-5.94,8.52a1.55,1.55,0,0,0,2.46,1.05,17.6,17.6,0,0,0,5.37-4.67c.87-1.32,1.78-.54,1.83.61s-.94,8.95-.94,8.95-2.44,8.68-1.78,9.65a1.59,1.59,0,0,0,2.48.12c.33-.46,3.07-7.71,3.07-7.71" style="fill:#ffbf9d"></path><path d="M450.71,230.18s.87,27.32,1,31.62C451.85,268.46,450,288,450,288l-13.22,1.89-.46-54.52Z" style="fill:#ffbf9d"></path><path d="M328.26,183.75c.93-2.24-.58-3.43-2.06-2.92a5.47,5.47,0,0,0-2.07,1.64c-2.08,2.83-2,4.72-2.7,6.07s-1.31,1.91-2.11,1.42-11.13-5.8-9.55,1.24c0,0-2.57.17-3.11,1.9a3.27,3.27,0,0,0,.54,3s-3.37.14-1.66,4.54c0,0-3.07,1.43-.16,4.59,0,0,1,2.39,2.49,3.12s10.5,5,11.72,5.88l4.56,5.94,8.64-13.39-4.34-4.36s-2.34-4.34-2.08-8.13a33.23,33.23,0,0,1,1-7.26C327.73,185.79,327.89,184.66,328.26,183.75Z" style="fill:#ffbf9d"></path><path d="M313.78,189a15.41,15.41,0,0,1,2.18,1.83c.65.61,1.42,1.28,2.27,2.13a2.22,2.22,0,0,1,.7,1.84,2.12,2.12,0,0,1-1.41,1.6,3.17,3.17,0,0,1-2.09-.08,6.66,6.66,0,0,1-1.64-1,23.27,23.27,0,0,1-2.33-2.07,10.61,10.61,0,0,1-1.82-2.2c.06-.05.8.75,2.08,1.94a29,29,0,0,0,2.36,1.94,6.29,6.29,0,0,0,1.52.86,2.69,2.69,0,0,0,1.75.07,1.62,1.62,0,0,0,1.07-1.19,1.74,1.74,0,0,0-.55-1.44c-.78-.82-1.56-1.56-2.16-2.18A15.52,15.52,0,0,1,313.78,189Z" style="fill:#ff9a6c"></path><path d="M316.27,196.47c0-.07,1,.37,1.39,1.86a2.46,2.46,0,0,1,0,1.24,1.65,1.65,0,0,1-.92,1.16,2.34,2.34,0,0,1-1.61,0,16.09,16.09,0,0,1-1.5-.59,24.91,24.91,0,0,1-4.86-2.74,8,8,0,0,1-1.76-1.5,60.88,60.88,0,0,0,6.83,3.76c1,.41,2,.93,2.71.63a1.2,1.2,0,0,0,.69-.83,2.25,2.25,0,0,0,0-1.06A4.25,4.25,0,0,0,316.27,196.47Z" style="fill:#ff9a6c"></path><path d="M314.67,200.49c.06-.05.56.62.5,1.86a2.19,2.19,0,0,1-.31,1,1.61,1.61,0,0,1-1,.73,2.88,2.88,0,0,1-1.31-.1c-.42-.11-.84-.24-1.27-.39a15.66,15.66,0,0,1-5.7-3.1c.09-.13,2.51,1.48,5.87,2.61a6.06,6.06,0,0,0,2.31.51,1.43,1.43,0,0,0,1.05-1.29A5.41,5.41,0,0,0,314.67,200.49Z" style="fill:#ff9a6c"></path><path d="M310.62,203.2s.62.2,1.14,1.08a2,2,0,0,1,.09,1.77,1.59,1.59,0,0,1-.79.81,2,2,0,0,1-1.18.09,11.61,11.61,0,0,1-4.74-2.24c.07-.14,2.13,1,4.84,1.72a1.17,1.17,0,0,0,1.43-.58,1.64,1.64,0,0,0,0-1.42C311.06,203.63,310.55,203.27,310.62,203.2Z" style="fill:#ff9a6c"></path><path d="M319.13,203.63a10,10,0,0,1-1-5,9.76,9.76,0,0,1,1.17-5,42.55,42.55,0,0,0-.65,5A43.92,43.92,0,0,0,319.13,203.63Z" style="fill:#ff9a6c"></path></g><g id="freepik--character-1--inject-110"><path d="M114.19,204.72s15.52.95,21.58,11.73,9.82,44.4,9.82,44.4l12.2,1.82s-6,23.38-15.91,23.85-10.95-4.8-10.95-4.8l-17.19-69.79Z" style="fill:#7E57C2"></path><path d="M164.3,269.93s2.19,2.51-1.74,3.55c0,0-.6,3.6-3.28,2.24,0,0-2.56,1.25-4,.76a28,28,0,0,1-4.53-2.62l-2.84-5.21,14.31-.74Z" style="fill:#ffbf9d"></path><path d="M156.64,264.18s-13.11.53-12.29,3.13,24.21,3.23,33.65,2.74c13.13-.69,22.29-3.26,23.11-5.87s-7-7.95-41.85-3.43Z" style="fill:#ae7461"></path><path d="M162.15,264.67s-.37-4.22-2.08-5-5.57.37-7,1.53a35.44,35.44,0,0,0-3.49,3.68l7-.68a4,4,0,0,0,3.43,1.78C162.58,266,162.15,264.67,162.15,264.67Z" style="fill:#ffbf9d"></path><path d="M200.26,262.38a1.9,1.9,0,0,1,0,.59,2.29,2.29,0,0,1-.71,1.52c-1.14,1-3.23,1.57-5.73,2.18a89.79,89.79,0,0,1-20,2.57,127.36,127.36,0,0,1-20.15-1.3c-2.56-.35-4.62-.71-6-1l-1.63-.33a2.11,2.11,0,0,1-.56-.15,3.15,3.15,0,0,1,.58,0l1.64.23c1.43.21,3.5.51,6.06.82a143,143,0,0,0,20.09,1.14,96.41,96.41,0,0,0,19.94-2.41c2.5-.56,4.57-1.07,5.67-2a2.29,2.29,0,0,0,.75-1.39A4.68,4.68,0,0,1,200.26,262.38Z" style="fill:#263238"></path><path d="M172.11,262.38c0,.65-1.61,1.17-3.6,1.17s-3.6-.52-3.6-1.17,1.61-1.17,3.6-1.17S172.11,261.73,172.11,262.38Z" style="fill:#7E57C2"></path><path d="M182.72,261.64c0,.64-1.61,1.17-3.6,1.17s-3.6-.53-3.6-1.17,1.61-1.18,3.6-1.18S182.72,261,182.72,261.64Z" style="fill:#455a64"></path><path d="M193.33,262.06c0,.65-1.62,1.17-3.61,1.17s-3.6-.52-3.6-1.17,1.61-1.17,3.6-1.17S193.33,261.41,193.33,262.06Z" style="fill:#ffbf9d"></path><path d="M183.36,266.34c0,.65-1.61,1.17-3.6,1.17s-3.61-.52-3.61-1.17,1.62-1.17,3.61-1.17S183.36,265.69,183.36,266.34Z" style="fill:#ff9a6c"></path><path d="M171.16,266.6c0,.64-1.62,1.17-3.61,1.17s-3.6-.53-3.6-1.17,1.61-1.17,3.6-1.17S171.16,266,171.16,266.6Z" style="fill:#7E57C2"></path><path d="M137.16,283.32H59.9c-3.59,3.05-9.25,17.37-6,50.91l5.14,114.84,29.13-.22L99.48,334.91l3.17,114.17,29.7.75,9.05-120.6a126.21,126.21,0,0,0-1.74-32.35Z" style="fill:#263238"></path><path d="M126.65,437l-.72,19s19,7.09,19.23,10.61l-36.8-.08-.09-29.58Z" style="fill:#263238"></path><path d="M114.56,454.32a1.5,1.5,0,0,0-1,1.71,1.45,1.45,0,0,0,1.69,1.05,1.59,1.59,0,0,0,1.1-1.82,1.51,1.51,0,0,0-1.88-.9" style="fill:#e0e0e0"></path><path d="M108.36,466.47l.11-3,35.24,1.19s1.64.72,1.45,1.87Z" style="fill:#455a64"></path><path d="M126.53,455.75c0,.18-.91.26-1.79.84s-1.36,1.33-1.52,1.25.1-1.1,1.19-1.78S126.57,455.59,126.53,455.75Z" style="fill:#fff"></path><path d="M130.39,457.35c0,.18-.74.48-1.35,1.24s-.79,1.56-1,1.56-.29-1,.48-2S130.38,457.18,130.39,457.35Z" style="fill:#fff"></path><path d="M132.57,462c-.16,0-.41-.86.05-1.84s1.31-1.38,1.38-1.23-.44.68-.81,1.49S132.75,462,132.57,462Z" style="fill:#fff"></path><path d="M126.21,451.41c-.07.17-.9-.08-1.91,0s-1.81.39-1.9.23.67-.79,1.86-.85S126.3,451.27,126.21,451.41Z" style="fill:#fff"></path><path d="M80.76,435l.51,23.26L87,476.49a2.39,2.39,0,0,1-1.72,3h0a2.36,2.36,0,0,1-2.12-.52c-3.7-3.24-17.24-15.24-17.18-16.94.07-2-2.16-24.5-2.16-24.5Z" style="fill:#263238"></path><path d="M85.25,479.52l-19.37-19,0,1a3.62,3.62,0,0,0,1,2.29c1.56,1.67,5.94,6.18,16.19,15.24a2.36,2.36,0,0,0,2.19.52Z" style="fill:#455a64"></path><g style="opacity:0.6000000000000001"><path d="M70.31,452.78a1.44,1.44,0,0,1,.48,1.86,1.38,1.38,0,0,1-1.84.49,1.51,1.51,0,0,1-.5-2,1.45,1.45,0,0,1,2-.3" style="fill:#fff"></path></g><path d="M79.48,469.6c.14.06.61-1.18,2-1.89a7.06,7.06,0,0,1,2.65-.63c0-.06-.28-.23-.83-.28a3.66,3.66,0,0,0-2.07.46,3.71,3.71,0,0,0-1.49,1.49C79.45,469.24,79.42,469.59,79.48,469.6Z" style="fill:#fff"></path><path d="M81.28,472.64c.11.1.82-.69,2-1.09a18.58,18.58,0,0,1,2.26-.39,2.64,2.64,0,0,0-2.43-.09C81.77,471.53,81.15,472.58,81.28,472.64Z" style="fill:#fff"></path><path d="M76.22,465.75a25.72,25.72,0,0,1,3-1.89,24.56,24.56,0,0,1,3.41-1,6.52,6.52,0,0,0-6.41,2.85Z" style="fill:#fff"></path><path d="M75.48,458.7c.07.13,1.33-.46,3-.59s3,.2,3,.06a5.92,5.92,0,0,0-6,.53Z" style="fill:#fff"></path><path d="M75.16,451.88a11.32,11.32,0,0,1,3.1-.7,12.11,12.11,0,0,1,3.12.63c0-.05-.23-.33-.78-.61a5.06,5.06,0,0,0-2.34-.53,5.21,5.21,0,0,0-2.33.57C75.39,451.54,75.12,451.83,75.16,451.88Z" style="fill:#fff"></path><path d="M124,177.81c-1.56-3.6-6.28-4.7-8.53-7.9l-47.75,3.73C66.24,175.56,64,178,63,180.22a10.24,10.24,0,0,0-.73,7.08,6.22,6.22,0,0,0,5.16,4.5c-.32,2.68,2,5.15,4.65,5.74s5.38-.31,7.77-1.58c3.31,1.45,6.72,2.92,10.33,3s7.52-1.43,9.15-4.65a31.47,31.47,0,0,0,8.91,2.48c3.08.23,6.4-.56,8.53-2.8s2.66-6.11.63-8.44a5.68,5.68,0,0,0,6.6-7.78Z" style="fill:#e0e0e0"></path><path d="M115.36,159.17a13,13,0,0,0-.32-12.26l-6.43,37.64a8.15,8.15,0,0,0,8.65-10.23c2-2.4,3.62-5.35,3.53-8.48S118.47,159.51,115.36,159.17Z" style="fill:#e0e0e0"></path><path d="M115.85,153.93c1.64-4.67-.62-10.13-4.6-13.06s-9.3-3.58-14.17-2.7c-3.83.7-7.86,2.66-9.19,6.32-2.83-1.4-7.79-.8-10.45.9a9.39,9.39,0,0,0-4.23,8,12.23,12.23,0,0,0-5.48,20.25c-3.43,4.08-1.9,11.91,1.49,16s8,4.85,13.25,5.74c7.19,1.22,14.92.46,21.16-3.33a24,24,0,0,0,10.66-27,14.36,14.36,0,0,1-.92-4.68C113.51,158.1,115.08,156.13,115.85,153.93Z" style="fill:#e0e0e0"></path><path d="M95.54,217a12,12,0,0,1-13.35-10.22l-5.6-38.95c-1.84-10.42,2.69-20.17,13.15-21.72l1-.08A18.9,18.9,0,0,1,111,161.72c1.55,9,3.14,19,3.51,23.93.77,10.12-9.2,12.59-9.2,12.59s.28,2.33.67,5.29A12,12,0,0,1,95.54,217Z" style="fill:#ffbf9d"></path><path d="M105.34,198.24a23.71,23.71,0,0,1-13.49-2.6s3.84,7.33,13.85,5.52Z" style="fill:#ff9a6c"></path><path d="M96.45,182.86a2.19,2.19,0,0,1,3.92,1,2.25,2.25,0,0,1-1.13,2.18,2.81,2.81,0,0,1-1.74.25,2.14,2.14,0,0,1-1.21-.57,2,2,0,0,1-.38-1.83,2.92,2.92,0,0,1,.81-1.37" style="fill:#ff9a6c"></path><path d="M108,172.28a1.44,1.44,0,0,1-1.26,1.58,1.4,1.4,0,0,1-1.61-1.17,1.45,1.45,0,0,1,1.26-1.58A1.39,1.39,0,0,1,108,172.28Z" style="fill:#263238"></path><path d="M109.35,166.88c-.16.2-1.33-.51-2.88-.37s-2.63,1-2.81.85.06-.43.52-.84a4,4,0,0,1,2.23-.91,3.79,3.79,0,0,1,2.32.53C109.24,166.46,109.43,166.79,109.35,166.88Z" style="fill:#263238"></path><path d="M94.53,173.45A1.45,1.45,0,0,1,93.27,175a1.39,1.39,0,0,1-1.61-1.17,1.45,1.45,0,0,1,1.26-1.58A1.39,1.39,0,0,1,94.53,173.45Z" style="fill:#263238"></path><path d="M94.44,168.58c-.16.2-1.33-.51-2.88-.37s-2.63,1-2.81.85.06-.43.52-.84a4,4,0,0,1,2.23-.91,3.79,3.79,0,0,1,2.32.53C94.32,168.16,94.52,168.49,94.44,168.58Z" style="fill:#263238"></path><path d="M100.73,179.65a10.4,10.4,0,0,1,2.49-.68c.39-.08.76-.19.8-.47a2,2,0,0,0-.37-1.15l-1.44-2.92c-2-4.15-3.5-7.58-3.34-7.66s1.94,3.22,3.95,7.38c.49,1,1,2,1.39,2.94a2.29,2.29,0,0,1,.35,1.54,1,1,0,0,1-.6.63,2.8,2.8,0,0,1-.67.16A10.28,10.28,0,0,1,100.73,179.65Z" style="fill:#263238"></path><path d="M94.8,162.7c-.15.43-1.71.25-3.54.5s-3.3.76-3.55.39c-.11-.18.15-.59.74-1a5.89,5.89,0,0,1,2.62-1,6,6,0,0,1,2.77.29C94.52,162.17,94.86,162.5,94.8,162.7Z" style="fill:#e0e0e0"></path><path d="M107.68,162c-.29.34-1.35-.08-2.64-.16s-2.39.13-2.63-.26c-.1-.18.09-.53.58-.84a3.83,3.83,0,0,1,4.25.33C107.67,161.42,107.81,161.79,107.68,162Z" style="fill:#e0e0e0"></path><path d="M78.1,175.4c-.18-.06-7.13-1.43-6.3,5.46s7.58,4.63,7.57,4.43S78.1,175.4,78.1,175.4Z" style="fill:#ffbf9d"></path><path d="M77,182.94s-.11.09-.3.21a1.2,1.2,0,0,1-.9.13,3,3,0,0,1-1.69-2.5,3.93,3.93,0,0,1,.12-1.76,1.4,1.4,0,0,1,.8-1,.6.6,0,0,1,.74.24c.12.18.09.33.13.33s.13-.13,0-.41a.77.77,0,0,0-.32-.4.91.91,0,0,0-.68-.09,1.7,1.7,0,0,0-1.13,1.22,4,4,0,0,0-.18,2c.21,1.38,1.08,2.6,2.11,2.76a1.26,1.26,0,0,0,1.07-.31C77,183.1,77,182.94,77,182.94Z" style="fill:#ff9a6c"></path><path d="M95.22,182.77c.14-.2,1.46.55,3.23.95s3.28.33,3.32.58-1.55.71-3.51.24S95.07,182.94,95.22,182.77Z" style="fill:#263238"></path><path d="M93.66,185.2c0,.05-.2.05-.45-.09a1.48,1.48,0,0,1-.65-.91,1.46,1.46,0,0,1,.19-1.1c.16-.24.33-.31.37-.28s-.3.61-.14,1.29S93.71,185.09,93.66,185.2Z" style="fill:#ff9a6c"></path><path d="M89.65,173.93c0,.11-.51.38-1.23.34s-1.24-.37-1.19-.47.57,0,1.21,0S89.61,173.81,89.65,173.93Z" style="fill:#ff9a6c"></path><path d="M90.06,174.49c0,.12-.45.23-1,.49s-.86.54-1,.46.17-.55.76-.84S90.06,174.38,90.06,174.49Z" style="fill:#ff9a6c"></path><path d="M111.65,170.76c.1.07-.12.48-.63.7s-1,.09-.94,0,.37-.19.77-.37S111.56,170.68,111.65,170.76Z" style="fill:#ff9a6c"></path><path d="M111.87,172.27c0,.11-.39.24-.89.21s-.89-.2-.87-.32.42-.13.89-.1S111.86,172.15,111.87,172.27Z" style="fill:#ff9a6c"></path><path d="M92.83,185.73c0,.11-.58,0-.86-.62s-.08-1.1,0-1.06.13.44.35.87S92.88,185.62,92.83,185.73Z" style="fill:#ff9a6c"></path><path d="M87.33,203.06a2.61,2.61,0,0,0,.12-1.54,1.67,1.67,0,0,0-.35-.67,3.59,3.59,0,0,0-.7-.58,1.34,1.34,0,0,1-.43-2.12,1.85,1.85,0,0,0,.37-.93,1.11,1.11,0,0,0-.45-.74c-.24-.22-.51-.41-.73-.64a1.4,1.4,0,0,1-.41-.83,1.64,1.64,0,0,1,.5-1.17c.2-.21.33-.3.35-.28s-.07.15-.22.39a1.55,1.55,0,0,0-.33,1c0,.45.55.77,1.09,1.2a1.5,1.5,0,0,1,.61,1,2,2,0,0,1-.41,1.16,1.27,1.27,0,0,0-.27.91,1.33,1.33,0,0,0,.57.69,3.62,3.62,0,0,1,.74.67,2.11,2.11,0,0,1,.23,2.07C87.48,203,87.35,203.08,87.33,203.06Z" style="fill:#ff9a6c"></path><path d="M90.11,202.66a2.83,2.83,0,0,0-.31-1.22c-.18-.35-.46-.74-.72-1.24a2.64,2.64,0,0,1-.3-.86,1.69,1.69,0,0,1,.17-1c.14-.29.24-.52.16-.72a1.14,1.14,0,0,0-.46-.53,4.94,4.94,0,0,1-.62-.51,1.3,1.3,0,0,1-.32-.67,1.37,1.37,0,0,1,.23-1c.16-.19.29-.24.31-.22s-.07.12-.17.31a1.36,1.36,0,0,0-.08.86c.07.37.41.62.88.92a1.51,1.51,0,0,1,.63.72,1.28,1.28,0,0,1-.18,1,1.65,1.65,0,0,0,.1,1.51c.23.47.49.89.65,1.28a2,2,0,0,1,.17,1C90.21,202.55,90.13,202.67,90.11,202.66Z" style="fill:#ff9a6c"></path><path d="M111.88,156.21a12.8,12.8,0,0,0-7.18-7.56c-3.27-1.46-7.92-3.43-11.5-3.31a27.14,27.14,0,0,0-11,3.06c-3.87,2.14-6.48,6.86-7.81,11.08s.52,8.84,1.26,13.2l1.12,4.17c.5,1.41,2.57,1.63,3.79.78a7,7,0,0,0,2.24-3.78c2.15-6.56,3.6-13.52,2.74-20.37a36.38,36.38,0,0,0,10.71,4.81,5.5,5.5,0,0,0,2.75.21,2.11,2.11,0,0,0,1.67-1.95,17.68,17.68,0,0,0,5.53,4.49c1.33.69,2.94,1.2,4.27.53a3.42,3.42,0,0,0,1.69-2.38A6,6,0,0,0,111.88,156.21Z" style="fill:#e0e0e0"></path><path d="M64.91,167.52c0-.08,1.47,0,3.79-.32a19.47,19.47,0,0,0,4-1.12,22.45,22.45,0,0,0,4.41-2.41A21.32,21.32,0,0,0,83.21,157c1.19-2,1.62-3.45,1.7-3.42a5.18,5.18,0,0,1-.28,1,18.7,18.7,0,0,1-1.15,2.57,20.24,20.24,0,0,1-6.17,6.9,22.17,22.17,0,0,1-4.51,2.43,18,18,0,0,1-4,1,15.81,15.81,0,0,1-2.81.14A3.88,3.88,0,0,1,64.91,167.52Z" style="fill:#fff"></path><path d="M65.94,170.64c0-.08,1.4-.13,3.6-.66a22.81,22.81,0,0,0,3.75-1.25,24.16,24.16,0,0,0,7.92-5.47,24,24,0,0,0,2.49-3.08c1.27-1.87,1.82-3.17,1.9-3.13a4.73,4.73,0,0,1-.36.92,8.17,8.17,0,0,1-.51,1.05c-.22.39-.45.86-.77,1.33a23.11,23.11,0,0,1-2.46,3.18,25.57,25.57,0,0,1-3.73,3.21,25,25,0,0,1-4.32,2.35,20.72,20.72,0,0,1-3.84,1.18c-.56.14-1.08.19-1.52.26a9.47,9.47,0,0,1-1.16.11A4.18,4.18,0,0,1,65.94,170.64Z" style="fill:#fff"></path><path d="M108.86,160.51s.26,0,.71-.12a3.55,3.55,0,0,0,1.68-1,3,3,0,0,0,.8-2.79,3.31,3.31,0,0,0-2.67-2.5l-.25,0,.1-.23a8,8,0,0,0-1.56-8.21,10.19,10.19,0,0,0-6.36-3.17,13.15,13.15,0,0,0-5.88.66,19.73,19.73,0,0,0-3.67,1.73c-.82.5-1.25.8-1.27.78s.09-.1.29-.26a9.77,9.77,0,0,1,.9-.66,16.73,16.73,0,0,1,3.65-1.87,13.06,13.06,0,0,1,6-.77,10.44,10.44,0,0,1,6.63,3.28,8.31,8.31,0,0,1,1.58,8.64l-.14-.26a3.65,3.65,0,0,1,2.92,2.8,3.28,3.28,0,0,1-.94,3,3.39,3.39,0,0,1-1.82,1,2.32,2.32,0,0,1-.54,0C108.92,160.53,108.86,160.52,108.86,160.51Z" style="fill:#fff"></path><path d="M60.74,248.22,62.24,259s-9.55,26.42-5.82,30.29c10.1,10.47,81.86,5.6,81.86,5.6s4.85,2.49-3.17-28.93c-2-7.81,1.2-14.46-.74-22.33-4.86-19.7-17.42-36.37-20.18-38.91L106,203.53s-1.05,14.06-24.84.05L61.93,209.3Z" style="fill:#7E57C2"></path><path d="M85.55,277.46a2.82,2.82,0,0,1-.78-.1c-.5-.09-1.21-.25-2.09-.48a52.42,52.42,0,0,1-13.05-5.38c-.78-.46-1.4-.85-1.82-1.14s-.64-.45-.62-.48,1,.51,2.59,1.36,3.82,1.95,6.35,3,4.91,1.83,6.63,2.35A28.45,28.45,0,0,1,85.55,277.46Z" style="fill:#263238"></path><path d="M140.51,293.33a7.22,7.22,0,0,1-.17-.76c-.1-.55-.24-1.28-.41-2.2-.33-2-.8-4.71-1.38-8.09l-2-12a23.3,23.3,0,0,0-.75-3.4c-.34-1.14-.76-2.29-1.07-3.52a22.63,22.63,0,0,1-.27-7.76c1.43-10.46.07-20.29-3.39-26.31a44.8,44.8,0,0,0-4.48-6.83l-1.42-1.71a4,4,0,0,1-.48-.63,3.79,3.79,0,0,1,.56.56l1.5,1.65a41.11,41.11,0,0,1,4.64,6.79,34.81,34.81,0,0,1,2.28,5.22,33.54,33.54,0,0,1,1.41,6.38c.12,1.15.22,2.33.27,3.53s.19,2.4.18,3.68c0,2.52-.32,5.09-.55,7.72a22.59,22.59,0,0,0,.24,7.59c.3,1.19.71,2.34,1.05,3.5a23.23,23.23,0,0,1,.76,3.47c.7,4.51,1.34,8.58,1.88,12s.93,6.15,1.22,8.12c.13.92.23,1.66.31,2.21A3.52,3.52,0,0,1,140.51,293.33Z" style="fill:#263238"></path><path d="M118,218.54a1.06,1.06,0,0,0,0,2.11h35.8v-2.11Z" style="fill:#6f4439"></path><path d="M116.26,230.91s3-8.18,4.14-11.42c.53-1.51,7.95-5.43,9.81-5.43s9.53,3.84,9.53,3.84a1.92,1.92,0,0,1-2,1.74l4.19,2.85s.11,2.73-1.74,2.15l.81,2.21s-.23,1-1.51.58c0,0,.23,1-1.63,1.51a30.84,30.84,0,0,1-6.16.23l-1,1.74s-1.63,5.58-3.37,7-7.4,4.85-7.4,4.85-6.84-10-6.72-9.81A23.23,23.23,0,0,0,116.26,230.91Z" style="fill:#ffbf9d"></path><path d="M137.76,219.64A8.34,8.34,0,0,1,136,219c-.54-.23-1.17-.51-1.88-.78-.35-.14-.73-.27-1.11-.38a2.59,2.59,0,0,0-1.18,0c-1.73.25-3.3.64-4.42.89a16.86,16.86,0,0,1-1.84.4c-.07-.19,2.64-1.23,6.19-1.81a3.06,3.06,0,0,1,1.38.07,10.43,10.43,0,0,1,1.16.42c.72.3,1.34.62,1.86.89A6,6,0,0,1,137.76,219.64Z" style="fill:#ff9a6c"></path><path d="M140.21,224.64a9,9,0,0,1-1.57-1.12c-.47-.36-1-.78-1.66-1.22a10.13,10.13,0,0,0-2.14-1.23,5.56,5.56,0,0,0-2.4-.06c-.76.1-1.45.25-2,.37a7.91,7.91,0,0,1-1.89.36,6.54,6.54,0,0,1,1.8-.71,16.49,16.49,0,0,1,2-.5,5.51,5.51,0,0,1,2.64.05,9.16,9.16,0,0,1,2.25,1.33,20,20,0,0,1,1.62,1.33A6.31,6.31,0,0,1,140.21,224.64Z" style="fill:#ff9a6c"></path><path d="M139.51,227.43a23.09,23.09,0,0,1-4.3-2.28l-.48-.29.2,0a19.26,19.26,0,0,1-4.22.86,19.41,19.41,0,0,1,4.09-1.36l.1,0,.1.06.48.28A22.39,22.39,0,0,1,139.51,227.43Z" style="fill:#ff9a6c"></path><path d="M61.93,209.3c-9.57,4.76-9.65,10.18-10.29,14.25a27,27,0,0,0-.27,4.95,36.2,36.2,0,0,0,7.17,20.42c5.54,7.56,13.64,20.68,20.48,21.43,5.19.57,9.1-.82,16-4.69s28.1-20.05,28.1-20.05l-10.73-13.75L84.82,246.12s-6.06-15.53-12.48-26.59" style="fill:#7E57C2"></path><path d="M72.34,219.53s.1.14.27.43.44.75.77,1.31c.66,1.15,1.6,2.87,2.76,5.13,2.3,4.51,5.44,11.17,8.85,19.66l-.26-.1,27.53-14.31.17-.09.12.16,10.75,13.73.15.2-.2.16c-6.23,4.73-12.89,9.71-19.89,14.65-2.91,2-5.77,4.05-8.8,5.74a37.94,37.94,0,0,1-9.39,4.05,17.17,17.17,0,0,1-5,.45c-.42,0-.83-.06-1.24-.11l-1.24-.27a10.84,10.84,0,0,1-2.23-1.05,20.14,20.14,0,0,1-3.77-3c-.57-.54-1.12-1.11-1.64-1.69s-1-1.16-1.53-1.75c-4-4.72-7.13-9.63-10.34-14A37,37,0,0,1,52,235a32.27,32.27,0,0,1-.33-12.5,18.59,18.59,0,0,1,1.27-5,13.2,13.2,0,0,1,2.4-3.61,21.11,21.11,0,0,1,4.75-3.62c.6-.34,1.07-.56,1.38-.72l.48-.23-.45.27c-.31.18-.77.42-1.35.77A21.25,21.25,0,0,0,55.47,214a13,13,0,0,0-2.32,3.57,18.43,18.43,0,0,0-1.21,4.94,32.15,32.15,0,0,0,.4,12.38,37,37,0,0,0,6.2,13.65c3.23,4.4,6.42,9.29,10.36,14,.49.59,1,1.17,1.52,1.73s1.06,1.13,1.62,1.67a20.37,20.37,0,0,0,3.68,2.92,11.18,11.18,0,0,0,2.13,1l1.15.25c.4,0,.8.09,1.2.1a16.62,16.62,0,0,0,4.86-.43,38.36,38.36,0,0,0,9.25-4c3-1.67,5.85-3.7,8.75-5.72,7-4.93,13.65-9.91,19.88-14.62l0,.35L112.18,232l.3.06L84.9,246.28l-.18.1-.07-.19C81.29,237.7,78.2,231,76,226.49c-1.13-2.27-2-4-2.67-5.17L72.57,220C72.41,219.69,72.34,219.53,72.34,219.53Z" style="fill:#263238"></path><path d="M81.85,258a16.56,16.56,0,0,1,.61-6.21,16.09,16.09,0,0,1,2.43-5.73c.14.07-1.1,2.56-1.93,5.86S82,258,81.85,258Z" style="fill:#263238"></path><polygon points="153.81 218.54 158.13 218.25 158.13 220.81 153.81 220.65 153.81 218.54" style="fill:#e0e0e0"></polygon><path d="M162.54,218.25a6.09,6.09,0,0,0-4.42,0v2.56c3.26,2.93,6.46-.12,7.29-.16S164.65,219.22,162.54,218.25Z" style="fill:#7E57C2"></path></g><g id="freepik--Easel--inject-110"><rect x="241.03" y="263.22" width="9.78" height="62.2" rx="4.65" transform="translate(-59.58 526.21) rotate(-87.32)" style="fill:#ae7461"></rect><path d="M272.11,300.44a7.17,7.17,0,0,0,1.35-.19,4.61,4.61,0,0,0,2.92-2.4,5.5,5.5,0,0,0,.49-2.73,4.53,4.53,0,0,0-1.31-2.95,4.62,4.62,0,0,0-3.44-1.35l-4.38-.19-48-2.17a4.4,4.4,0,0,0-4.56,3.85,7.36,7.36,0,0,0-.06.83,4.25,4.25,0,0,0,0,.8,4.43,4.43,0,0,0,2.86,3.52,4.72,4.72,0,0,0,1.55.27l1.63.08,3.22.15,6.24.3,21.59,1.07,14.54.76,4,.24,1,.07.35,0a1.23,1.23,0,0,1-.36,0l-1,0-4-.13-14.56-.6-21.59-1-6.24-.28-3.22-.15-1.64-.07a5.28,5.28,0,0,1-1.69-.3,4.9,4.9,0,0,1-2.63-2.24,4.78,4.78,0,0,1-.57-1.68,6.79,6.79,0,0,1,0-.9c0-.29,0-.57.06-.88a4.92,4.92,0,0,1,5.1-4.3l48,2.33,4.39.22a5,5,0,0,1,3.63,1.47,4.84,4.84,0,0,1,1.35,3.15,5.65,5.65,0,0,1-.56,2.83,4.72,4.72,0,0,1-3.07,2.42A3.54,3.54,0,0,1,272.11,300.44Z" style="fill:#6f4439"></path><polygon points="294.73 291.25 179.74 285.54 185.98 159.77 300.67 171.45 294.73 291.25" style="fill:#e0e0e0"></polygon><g style="opacity:0.30000000000000004"><polygon points="287 281.33 201.05 277.06 206.27 171.88 291.98 180.84 287 281.33"></polygon></g><g style="opacity:0.30000000000000004"><polygon points="190.35 286.07 179.74 285.54 185.98 159.77 196.68 160.86 190.35 286.07"></polygon></g><g style="opacity:0.30000000000000004"><polygon points="283.04 281.13 287.87 183.84 206.08 175.72 206.27 171.88 291.98 180.84 287 281.33 283.04 281.13"></polygon></g><path d="M248.68,464.65h0a5,5,0,0,1-5.05-5V151.48a5,5,0,0,1,5.77-5h0a5,5,0,0,1,4.33,5V459.62A5,5,0,0,1,248.68,464.65Z" style="fill:#ae7461"></path><path d="M248.68,464.65a5.19,5.19,0,0,0,1.63-.3,4.77,4.77,0,0,0,1.74-1.05,4.94,4.94,0,0,0,1.45-2.37,5.43,5.43,0,0,0,.17-1.69v-1.9c0-1.33,0-2.79,0-4.37,0-3.15,0-6.8,0-10.89,0-16.4,0-40.13-.08-69.44s0-64.22-.06-103c0-19.38,0-39.72,0-60.81q0-15.81,0-32.16V151.94a4.93,4.93,0,0,0-1.25-3.67,4.79,4.79,0,0,0-7.06,0,4.87,4.87,0,0,0-1.27,3.66v24.77q0,16.33,0,32.17c0,21.09,0,41.44,0,60.82,0,38.76,0,73.67-.06,103s-.06,53-.08,69.43c0,4.1,0,7.74,0,10.89,0,1.58,0,3,0,4.37v1.9a5.43,5.43,0,0,0,.17,1.69,4.94,4.94,0,0,0,1.45,2.37,4.86,4.86,0,0,0,1.74,1.05,5.23,5.23,0,0,0,1.63.3s-.14,0-.42,0a4.79,4.79,0,0,1-1.23-.25,5.07,5.07,0,0,1-3.27-3.45,5.58,5.58,0,0,1-.19-1.71v-1.9c0-1.33,0-2.79,0-4.37,0-3.15,0-6.79,0-10.89,0-16.4-.05-40.12-.08-69.43s0-64.22-.06-103c0-19.38,0-39.73,0-60.82V151.91a5.45,5.45,0,0,1,1.4-4,5.34,5.34,0,0,1,7.84,0,5.43,5.43,0,0,1,1.38,4v56.92c0,21.09,0,41.43,0,60.81,0,38.75,0,73.66-.05,103s-.07,53-.09,69.44c0,4.09,0,7.74,0,10.89,0,1.58,0,3,0,4.37,0,.66,0,1.3,0,1.9a5.58,5.58,0,0,1-.19,1.71,5,5,0,0,1-1.49,2.41,4.87,4.87,0,0,1-1.78,1,4.79,4.79,0,0,1-1.23.25C248.82,464.66,248.68,464.65,248.68,464.65Z" style="fill:#6f4439"></path><path d="M263.22,227.52l17.84,230.67a4.85,4.85,0,0,0,4.87,4.45h0a4.85,4.85,0,0,0,4.87-5.14l-16-230.8a4.85,4.85,0,0,0-5.2-4.48l-1.85.13A4.84,4.84,0,0,0,263.22,227.52Z" style="fill:#ae7461"></path><path d="M263.22,227.52s0-.11,0-.32a4,4,0,0,1,.07-1,4.82,4.82,0,0,1,2-3.09,5.08,5.08,0,0,1,2.62-.88,10.45,10.45,0,0,1,3.34,0,5,5,0,0,1,3.05,2.35,4.89,4.89,0,0,1,.61,2.09c.06.73.11,1.49.17,2.27.88,12.51,2.16,30.58,3.75,52.91,3.11,44.69,7.42,106.41,12.17,174.58a14.44,14.44,0,0,1,.06,1.63,4.85,4.85,0,0,1-.38,1.64,5.16,5.16,0,0,1-8.38,1.63,5,5,0,0,1-1.46-2.93c-.1-1.07-.17-2.1-.25-3.15q-.24-3.13-.48-6.24-1-12.45-1.9-24.51c-1.23-16.07-2.43-31.56-3.56-46.33-2.26-29.52-4.3-56.11-6-78.44s-3.06-40.4-4-52.89c-.46-6.24-.82-11.09-1.06-14.38-.12-1.64-.21-2.89-.27-3.74s-.07-1.28-.07-1.28,0,.43.13,1.27.17,2.1.31,3.74c.27,3.29.66,8.14,1.16,14.37,1,12.5,2.41,30.56,4.17,52.88s3.82,48.91,6.13,78.44c1.14,14.76,2.35,30.26,3.59,46.32q.94,12.06,1.9,24.51.24,3.1.49,6.24c.08,1,.15,2.11.25,3.13a4.45,4.45,0,0,0,1.31,2.62,4.69,4.69,0,0,0,5.55.74,4.58,4.58,0,0,0,2-2.21,4.27,4.27,0,0,0,.34-1.46,13.91,13.91,0,0,0-.06-1.56c-4.69-68.18-8.94-129.9-12-174.59-1.51-22.34-2.74-40.42-3.59-52.92-.15-1.55,0-3.1-.73-4.29a4.77,4.77,0,0,0-2.93-2.29,10.44,10.44,0,0,0-3.29-.06,4.91,4.91,0,0,0-2.57.84,4.7,4.7,0,0,0-2,3A7.1,7.1,0,0,0,263.22,227.52Z" style="fill:#6f4439"></path><path d="M236.3,226.76,213.43,460.05a4.88,4.88,0,0,1-5,4.4h0a4.87,4.87,0,0,1-4.75-5.31l21-233.46a4.88,4.88,0,0,1,5.3-4.42l1.84.17A4.88,4.88,0,0,1,236.3,226.76Z" style="fill:#ae7461"></path><path d="M236.3,226.76a7.24,7.24,0,0,0-.08-1.28,4.76,4.76,0,0,0-2-3.1,4.83,4.83,0,0,0-2.58-.9,9.32,9.32,0,0,0-3.33,0,4.78,4.78,0,0,0-2.95,2.33c-.71,1.22-.59,2.78-.78,4.34l-4.74,53.51c-4,45.19-9.65,107.6-15.82,176.52a12.57,12.57,0,0,0-.1,1.59,4.51,4.51,0,0,0,.31,1.49,4.62,4.62,0,0,0,7.56,1.57,4.59,4.59,0,0,0,1.32-2.66c.1-1.06.21-2.11.31-3.17q.31-3.17.62-6.31,1.24-12.58,2.44-24.77c1.59-16.24,3.13-31.91,4.6-46.83,2.95-29.85,5.6-56.72,7.83-79.29l5.33-53.45c.64-6.31,1.13-11.2,1.47-14.53.17-1.66.31-2.92.4-3.78s.15-1.29.15-1.29,0,.44-.1,1.29-.19,2.13-.35,3.79c-.31,3.33-.78,8.23-1.37,14.54-1.22,12.63-3,30.89-5.16,53.46s-4.81,49.46-7.72,79.3c-1.46,14.93-3,30.6-4.58,46.84q-1.19,12.18-2.42,24.77c-.21,2.1-.41,4.2-.62,6.31-.11,1.06-.21,2.12-.32,3.18a5.09,5.09,0,0,1-1.46,3,5.13,5.13,0,0,1-8.41-1.75,5,5,0,0,1-.35-1.66,12.5,12.5,0,0,1,.1-1.65c6.23-68.93,11.88-131.33,16-176.51,2.07-22.58,3.75-40.85,4.9-53.49.08-.79.15-1.56.22-2.3a5,5,0,0,1,3.68-4.51,9.62,9.62,0,0,1,3.39,0,4.94,4.94,0,0,1,4.58,4.12,4.42,4.42,0,0,1,.05,1Z" style="fill:#6f4439"></path><rect x="244.21" y="223.75" width="9.78" height="62.2" rx="4.65" transform="translate(-24.35 483.38) rotate(-85.54)" style="fill:#ae7461"></rect><path d="M275.08,261.78a6.51,6.51,0,0,0,1.36-.15,4.63,4.63,0,0,0,3-2.3,5.54,5.54,0,0,0,.57-2.72,4.55,4.55,0,0,0-1.22-3,4.67,4.67,0,0,0-3.39-1.46l-4.38-.32-47.93-3.66a4.38,4.38,0,0,0-3.08.95,4.43,4.43,0,0,0-1.6,2.75c0,.26-.06.55-.08.83a5.48,5.48,0,0,0,0,.81,4.26,4.26,0,0,0,.46,1.52,4.35,4.35,0,0,0,2.29,2.08,4.91,4.91,0,0,0,1.53.32l1.63.13,3.22.25,6.23.5,21.54,1.73,14.52,1.22,3.94.35,1,.11.35,0a1.55,1.55,0,0,1-.35,0l-1,0-3.95-.26-14.53-1.05-21.55-1.63-6.23-.47-3.21-.25-1.64-.13a5.29,5.29,0,0,1-1.68-.34,5,5,0,0,1-3.08-4,6.72,6.72,0,0,1,0-.9c0-.28.05-.56.09-.87a4.92,4.92,0,0,1,5.23-4.14l47.92,3.81,4.37.36a5,5,0,0,1,3.58,1.59,4.81,4.81,0,0,1,1.26,3.19,5.69,5.69,0,0,1-.65,2.81,4.72,4.72,0,0,1-3.14,2.32A3.69,3.69,0,0,1,275.08,261.78Z" style="fill:#6f4439"></path><path d="M190.4,286.54a1.64,1.64,0,0,1,0-.33c0-.24,0-.55,0-.95,0-.87.08-2.1.14-3.66.14-3.21.34-7.81.59-13.47.55-11.4,1.3-27.1,2.14-44.43s1.71-33,2.3-44.44c.32-5.66.58-10.25.76-13.46.1-1.57.17-2.79.23-3.66l.07-.95c0-.22,0-.33,0-.33a1,1,0,0,1,0,.33c0,.24,0,.56,0,.95,0,.87-.07,2.1-.13,3.67-.14,3.21-.34,7.8-.59,13.47-.55,11.4-1.31,27.09-2.15,44.43s-1.71,33-2.3,44.42c-.31,5.66-.57,10.26-.75,13.47-.1,1.56-.18,2.79-.23,3.66,0,.4-.06.71-.08.95A1.68,1.68,0,0,1,190.4,286.54Z" style="fill:#263238"></path></g></svg>
